<svg width="26" height="26" fill="none" xmlns="http://www.w3.org/2000/svg"><path fill-rule="evenodd" clip-rule="evenodd" d="M13.83 1.236a1 1 0 0 0-1.66 0l-1.173 1.747a1 1 0 0 1-1.27.34l-1.89-.926a1 1 0 0 0-1.438.83l-.142 2.1a1 1 0 0 1-.93.93l-2.1.142a1 1 0 0 0-.83 1.438l.926 1.89a1 1 0 0 1-.34 1.27L1.236 12.17a1 1 0 0 0 0 1.66l1.747 1.173a1 1 0 0 1 .34 1.27l-.926 1.89a1 1 0 0 0 .83 1.438l2.1.142a1 1 0 0 1 .93.93l.142 2.1a1 1 0 0 0 1.438.83l1.89-.927a1 1 0 0 1 1.27.34l1.173 1.748a1 1 0 0 0 1.66 0l1.173-1.747a1 1 0 0 1 1.27-.34l1.89.926a1 1 0 0 0 1.438-.83l.142-2.1a1 1 0 0 1 .93-.93l2.1-.142a1 1 0 0 0 .83-1.438l-.927-1.89a1 1 0 0 1 .34-1.27l1.748-1.173a1 1 0 0 0 0-1.66l-1.747-1.173a1 1 0 0 1-.34-1.27l.926-1.89a1 1 0 0 0-.83-1.438l-2.1-.142a1 1 0 0 1-.93-.93l-.142-2.1a1 1 0 0 0-1.438-.83l-1.89.927a1 1 0 0 1-1.27-.34L13.83 1.235ZM11 10a1 1 0 1 1-2 0 1 1 0 0 1 2 0Zm1 0a2 2 0 1 1-4 0 2 2 0 0 1 4 0Zm4 7a1 1 0 1 0 0-2 1 1 0 0 0 0 2Zm0 1a2 2 0 1 0 0-4 2 2 0 0 0 0 4Zm1.354-8.646a.5.5 0 0 0-.708-.708l-8 8a.5.5 0 1 0 .707.708l8-8Z" fill="#71A4F0"/></svg>