<svg width="37" height="28" fill="none" xmlns="http://www.w3.org/2000/svg"><path d="M21.742 14a3.242 3.242 0 1 1-6.484 0 3.242 3.242 0 0 1 6.484 0Z" fill="#5EE8AE"/><path fill-rule="evenodd" clip-rule="evenodd" d="M12.769 7.123a.81.81 0 0 1 0 1.146 8.107 8.107 0 0 0 0 11.462.81.81 0 0 1-1.146 1.146 9.726 9.726 0 0 1 0-13.754.81.81 0 0 1 1.146 0Z" fill="#68DCA4" fill-opacity=".71"/><path fill-rule="evenodd" clip-rule="evenodd" d="M9.712 4.066a.81.81 0 0 1 0 1.146 12.428 12.428 0 0 0 0 17.576.81.81 0 0 1-1.146 1.146 14.048 14.048 0 0 1 0-19.868.81.81 0 0 1 1.146 0Z" fill="#68DCA4" fill-opacity=".43"/><path fill-rule="evenodd" clip-rule="evenodd" d="M6.814.23a.81.81 0 0 1 .016 1.145 17.877 17.877 0 0 0-3.758 5.787A18.314 18.314 0 0 0 1.75 14c0 2.348.45 4.672 1.322 6.838a17.877 17.877 0 0 0 3.758 5.787.81.81 0 0 1-1.162 1.13 19.498 19.498 0 0 1-4.1-6.311 19.946 19.946 0 0 1 0-14.888 19.498 19.498 0 0 1 4.1-6.31.81.81 0 0 1 1.146-.017Z" fill="#68DCA4" fill-opacity=".27"/><path fill-rule="evenodd" clip-rule="evenodd" d="M27.288 23.934a.81.81 0 0 1 0-1.146 12.428 12.428 0 0 0 0-17.576.81.81 0 0 1 1.146-1.146 14.049 14.049 0 0 1 0 19.868.81.81 0 0 1-1.146 0Z" fill="#68DCA4" fill-opacity=".43"/><path fill-rule="evenodd" clip-rule="evenodd" d="M30.186 27.77a.81.81 0 0 1-.016-1.145 17.874 17.874 0 0 0 3.758-5.787A18.313 18.313 0 0 0 35.25 14c0-2.348-.45-4.672-1.322-6.838a17.877 17.877 0 0 0-3.758-5.787.81.81 0 1 1 1.162-1.13 19.498 19.498 0 0 1 4.1 6.311 19.946 19.946 0 0 1 0 14.888 19.498 19.498 0 0 1-4.1 6.31.81.81 0 0 1-1.146.017Z" fill="#68DCA4" fill-opacity=".27"/><path fill-rule="evenodd" clip-rule="evenodd" d="M24.073 20.846a.81.81 0 0 1 .031-1.145 8.089 8.089 0 0 0 1.855-2.628A7.667 7.667 0 0 0 26.605 14a7.662 7.662 0 0 0-.646-3.073A8.09 8.09 0 0 0 24.104 8.3a.81.81 0 1 1 1.115-1.176 9.709 9.709 0 0 1 2.225 3.155A9.284 9.284 0 0 1 28.226 14a9.284 9.284 0 0 1-.782 3.722 9.708 9.708 0 0 1-2.225 3.155.81.81 0 0 1-1.146-.03Z" fill="#68DCA4" fill-opacity=".71"/></svg>