<svg width="24" height="24" fill="none" xmlns="http://www.w3.org/2000/svg"><path d="M8.18 12.602a1.025 1.025 0 0 0 1.025 1.025h6.151a1.025 1.025 0 1 0 0-2.05H9.205a1.025 1.025 0 0 0-1.026 1.025Z" fill="#4E5361"/><path d="M9.205 16.704H7.369a4.234 4.234 0 0 1-4.316-3.723 4.102 4.102 0 0 1 4.101-4.48h2.05a1.025 1.025 0 0 0 0-2.051H7.37a6.305 6.305 0 0 0-6.315 5.342 6.153 6.153 0 0 0 6.1 6.963h2.05a1.025 1.025 0 1 0 0-2.051Zm14.354-4.881A6.317 6.317 0 0 0 17.16 6.45h-1.548c-.83 0-1.282.461-1.282 1.025A1.025 1.025 0 0 0 15.356 8.5h1.836a4.234 4.234 0 0 1 4.316 3.723 4.102 4.102 0 0 1-4.101 4.48h-2.05a1.025 1.025 0 1 0 0 2.052h2.05a6.15 6.15 0 0 0 6.152-6.932Z" fill="#4E5361"/></svg>