<svg width="24" height="24" fill="none" xmlns="http://www.w3.org/2000/svg"><path d="M16.505 4H7.228a.91.91 0 1 0 0 1.819h9.276a.91.91 0 0 0 0-1.819ZM3 18.458c0 .753.552 1.364 1.233 1.364h15.223c.681 0 1.233-.611 1.233-1.364 0-.377-.273-.682-.616-.682H3.617c-.34 0-.617.305-.617.682ZM19.456 6.678h-.858a.81.81 0 0 0-.746.49 1.23 1.23 0 0 1-1.123.766H7.037a1.23 1.23 0 0 1-1.124-.766.81.81 0 0 0-.745-.49h-.934C3.552 6.678 3 7.26 3 7.978v6.973a.845.845 0 0 0 .819.867H19.87a.845.845 0 0 0 .819-.867V7.977c0-.717-.553-1.3-1.234-1.3Zm-4.405 5.593a.91.91 0 0 1-.91.91H9.594a.91.91 0 0 1-.91-.91v-.728a.91.91 0 0 1 .91-.91h4.547a.91.91 0 0 1 .91.91v.728Z" fill="#4E5361"/></svg>