<svg width="24" height="24" fill="none" xmlns="http://www.w3.org/2000/svg"><path fill-rule="evenodd" clip-rule="evenodd" d="M2.794 5.548c-.065.26-.22.49-.435.651a3.375 3.375 0 0 0-1.255 1.868c-.115.45.275.834.742.834h20.308c.467 0 .857-.383.742-.834a3.375 3.375 0 0 0-1.255-1.868 1.172 1.172 0 0 1-.435-.651A3.384 3.384 0 0 0 17.923 3H6.077a3.384 3.384 0 0 0-3.283 2.548Zm15.13-.862H6.076a1.69 1.69 0 0 0-1.692 1.686c0 .466.378.843.846.843h13.538a.845.845 0 0 0 .846-.843 1.69 1.69 0 0 0-1.692-1.686ZM1.846 10.587A.845.845 0 0 0 1 11.43v5.901c0 .466.379.843.846.843h20.308a.845.845 0 0 0 .846-.843v-5.9a.845.845 0 0 0-.846-.844H1.846ZM12.26 11.59a.29.29 0 0 0-.52 0l-.376.73a.292.292 0 0 1-.315.154l-.794-.155c-.232-.046-.419.193-.324.414l.326.754c.052.12.02.262-.078.347l-.615.536a.301.301 0 0 0 .116.516l.782.211a.298.298 0 0 1 .218.279l.028.823c.008.241.278.373.468.23l.65-.491a.289.289 0 0 1 .349 0l.65.491c.19.144.459.011.467-.23l.028-.823a.298.298 0 0 1 .218-.279l.782-.21a.301.301 0 0 0 .116-.517l-.615-.536a.303.303 0 0 1-.078-.347l.326-.754c.095-.22-.092-.46-.324-.414l-.794.155a.292.292 0 0 1-.315-.154l-.376-.73Z" fill="#4E5361"/><path d="M1.544 20.852c-.301-.462.101-.992.654-.992h19.604c.553 0 .955.53.654.992a3.397 3.397 0 0 1-1.116 1.068c-.315.185-.682.013-1.044-.156a3.664 3.664 0 0 0-.422-.177.848.848 0 0 0-.259-.04H4.385a.849.849 0 0 0-.26.04c-.137.044-.278.11-.42.177-.363.17-.73.341-1.045.156a3.397 3.397 0 0 1-1.116-1.068Z" fill="#4E5361"/></svg>