<svg width="24" height="24" fill="none" xmlns="http://www.w3.org/2000/svg"><path d="m11.221 3.5-5.413 9.473c-.364.636.118 1.414.878 1.414h4.142c.615 0 1.084.526.987 1.106l-.901 5.397c-.177 1.06 1.325 1.55 1.864.61l.24-.418.002-.005 5.172-9.05c.364-.636-.119-1.414-.878-1.414h-4.142c-.615 0-1.084-.526-.987-1.107l.644-3.858.001-.005.04-.236v-.006l.216-1.291c.177-1.06-1.327-1.551-1.865-.61Z" fill="#4E5361"/><path d="M6.35 8.036c.472-.825-.345-1.543-1.008-.847C3.887 8.717 3 10.749 3 12.978c0 3.543 2.24 6.585 5.44 7.904.22.091.461-.067.499-.293l.126-.753c.071-.43-.173-.845-.567-1.063a6.905 6.905 0 0 1-2.428-2.237 1.343 1.343 0 0 0-.606-.482c-1.523-.646-2.29-2.459-1.41-3.998l2.296-4.02ZM16.706 18.615l1.025-1.794c.3-.408.554-.85.753-1.318l1.463-2.559c1.006-1.76-.142-3.877-2.109-4.2a1.37 1.37 0 0 1-.756-.368 6.996 6.996 0 0 0-1.705-1.261c-.406-.214-.661-.636-.588-1.074l.008-.05c.099-.59.734-.952 1.29-.68C19.003 6.733 21 9.632 21 12.977c0 2.66-1.262 5.037-3.245 6.615-.722.575-1.5-.19-1.049-.978Z" fill="#4E5361"/></svg>