<svg width="24" height="24" fill="none" xmlns="http://www.w3.org/2000/svg"><path d="M13.286 12a1.286 1.286 0 1 1-2.572 0 1.286 1.286 0 0 1 2.572 0ZM24 12a.857.857 0 0 1-.858.857h-1.714a9.427 9.427 0 0 1-8.571 8.572v1.714a.857.857 0 1 1-1.714 0v-1.714a9.428 9.428 0 0 1-8.529-8.572H.857a.857.857 0 1 1 0-1.714h1.757a9.429 9.429 0 0 1 8.529-8.529V.857a.857.857 0 1 1 1.714 0v1.757a9.429 9.429 0 0 1 8.572 8.529h1.714A.857.857 0 0 1 24 12ZM12.857 4.338v2.57a5.143 5.143 0 0 1 4.209 4.235h2.57a7.715 7.715 0 0 0-6.779-6.805ZM15.428 12a3.428 3.428 0 1 0-6.855 0 3.428 3.428 0 0 0 6.855 0Zm-11.091-.857h2.571a5.143 5.143 0 0 1 4.235-4.208V4.363a7.715 7.715 0 0 0-6.806 6.78Zm6.806 8.52v-2.571a5.143 5.143 0 0 1-4.209-4.234H4.363a7.715 7.715 0 0 0 6.78 6.805Zm8.52-6.806H17.09a5.143 5.143 0 0 1-4.234 4.209v2.571a7.715 7.715 0 0 0 6.806-6.78Z" fill="#4E5361"/></svg>