<svg width="24" height="24" fill="none" xmlns="http://www.w3.org/2000/svg"><path fill-rule="evenodd" clip-rule="evenodd" d="M17.78 20.693c-3.841.41-7.715.41-11.556 0a3.28 3.28 0 0 1-2.917-2.913 54.466 54.466 0 0 1 0-11.556A3.28 3.28 0 0 1 6.22 3.307c3.841-.41 7.715-.41 11.556 0a3.28 3.28 0 0 1 2.917 2.913c.41 3.841.41 7.715 0 11.556a3.28 3.28 0 0 1-2.913 2.917ZM13.716 7c.857.145 1.678.4 2.443.745a.03.03 0 0 1 .015.014c1.355 1.961 2.024 4.174 1.774 6.72 0 .012-.006.021-.015.028a9.983 9.983 0 0 1-3.002 1.49.038.038 0 0 1-.042-.014 7.84 7.84 0 0 1-.612-.98c-.01-.02-.001-.045.02-.053.327-.121.638-.266.937-.438a.038.038 0 0 0 .003-.063 4.72 4.72 0 0 1-.186-.144.038.038 0 0 0-.04-.005c-1.94.883-4.066.883-6.03 0a.038.038 0 0 0-.039.005c-.06.05-.123.098-.186.144a.038.038 0 0 0 .004.063c.299.168.61.317.936.439a.037.037 0 0 1 .02.052 6.977 6.977 0 0 1-.612.98.04.04 0 0 1-.042.014 10.016 10.016 0 0 1-2.997-1.49.04.04 0 0 1-.015-.028c-.21-2.203.217-4.433 1.772-6.72a.035.035 0 0 1 .016-.014 9.986 9.986 0 0 1 2.443-.745.039.039 0 0 1 .04.018c.105.185.226.421.308.615a9.282 9.282 0 0 1 2.744 0c.081-.19.198-.43.304-.615A.037.037 0 0 1 13.716 7Zm-4.784 4.948c0 .656.487 1.19 1.078 1.19.6 0 1.079-.534 1.079-1.19.009-.651-.474-1.19-1.079-1.19-.6 0-1.078.534-1.078 1.19Zm3.987 0c0 .656.487 1.19 1.078 1.19.606 0 1.079-.534 1.079-1.19.01-.651-.473-1.19-1.079-1.19-.6 0-1.078.534-1.078 1.19Z" fill="#4E5361"/></svg>