<svg width="24" height="24" fill="none" xmlns="http://www.w3.org/2000/svg"><path d="M17.24 14.31c0 .984-.36 1.83-1.08 2.538-.72.696-1.757 1.128-3.113 1.296v2.016h-1.8v-1.962a9.793 9.793 0 0 1-2.538-.468c-.804-.264-1.452-.588-1.944-.972l.99-2.196c.456.336.99.618 1.602.846a7.325 7.325 0 0 0 1.89.432v-3.006c-.852-.204-1.572-.432-2.16-.684a3.847 3.847 0 0 1-1.476-1.098c-.396-.492-.594-1.14-.594-1.944 0-.996.36-1.848 1.08-2.556.732-.72 1.782-1.158 3.15-1.314V3.24h1.8v1.962c1.476.12 2.694.486 3.654 1.098l-.9 2.214c-.9-.516-1.818-.828-2.754-.936v3.06c.84.192 1.548.414 2.124.666a3.62 3.62 0 0 1 1.476 1.098c.396.48.594 1.116.594 1.908ZM9.916 8.964c0 .3.114.546.342.738.228.192.558.354.99.486V7.632c-.456.108-.792.282-1.008.522a1.138 1.138 0 0 0-.324.81Zm3.132 6.804c.432-.096.756-.252.972-.468.216-.216.324-.474.324-.774 0-.3-.114-.546-.342-.738-.216-.192-.534-.36-.954-.504v2.484Z" fill="#4E5361"/></svg>