<svg width="28" height="28" fill="none" xmlns="http://www.w3.org/2000/svg"><path d="M14.114 2.217a.995.995 0 0 0 .197-.198h3.416l.047-.001a7.164 7.164 0 0 1 .726 0h.051a5.091 5.091 0 0 1 2.194.492 6.965 6.965 0 0 1 3.12 2.43 6.943 6.943 0 0 1 1.073 5.797L20.563 6.42a1 1 0 0 0-.703-.288h-6.326a1.01 1.01 0 0 0-.604.203L10.417 8.24a1.298 1.298 0 0 1-1.946-.466 1.27 1.27 0 0 1 .378-1.567l5.265-3.989ZM7.532 16.98l-.018.018-1.298 1.29-.017.018c-.471.449-1.22.443-1.683-.018a1.19 1.19 0 0 1 0-1.689l1.299-1.29a1.208 1.208 0 0 1 1.7 0c.464.46.47 1.204.017 1.672ZM7.148 19.245a1.189 1.189 0 0 0 .017 1.672c.47.467 1.23.467 1.7 0l1.298-1.29a1.189 1.189 0 0 0-.186-1.84 1.208 1.208 0 0 0-1.496.134l-.017.017-1.299 1.29-.017.017ZM4.335 13.211a1.19 1.19 0 0 1 0 1.69l-1.298 1.29c-.47.466-1.231.466-1.7 0a1.189 1.189 0 0 1 0-1.69l1.298-1.29a1.208 1.208 0 0 1 1.7 0ZM12.804 20.567c.47.466.47 1.222 0 1.689l-1.299 1.29a1.209 1.209 0 0 1-1.7 0 1.19 1.19 0 0 1-.23-1.37l.002-.004c.057-.113.133-.22.228-.315l1.299-1.29a1.208 1.208 0 0 1 1.7 0Z" fill="#4E5361"/><path d="M4.126 4.441a8.238 8.238 0 0 1 6.817-2.331L7.64 4.61a3.27 3.27 0 0 0-.623 4.598 3.297 3.297 0 0 0 4.607.623l2.244-1.7h5.58l4.676 4.612a.73.73 0 0 0 .048.053l1.533 1.534a1.918 1.918 0 0 1-2.58 2.833l-.129-.129a.677.677 0 0 0-.08-.068L21.46 15.51a.667.667 0 1 0-.943.943l1.534 1.533c.055.055.112.108.17.159l.059.058a1.359 1.359 0 0 1-1.922 1.922l-.225-.225a.667.667 0 0 0-1.138.484.665.665 0 0 0 .195.487l.297.297a1.257 1.257 0 1 1-1.777 1.777l-.001-.001-.016-.016-.28-.28a.666.666 0 1 0-.943.943l.291.291a1.281 1.281 0 0 1-1.8 1.823l-1.908-1.814.7-.695a2.512 2.512 0 0 0 0-3.569 2.542 2.542 0 0 0-1.905-.737 2.508 2.508 0 0 0-.741-1.892 2.542 2.542 0 0 0-1.904-.737 2.508 2.508 0 0 0-.742-1.892 2.55 2.55 0 0 0-2.459-.652 2.506 2.506 0 0 0-.72-1.447 2.552 2.552 0 0 0-3.352-.21A8.127 8.127 0 0 1 4.126 4.44Z" fill="#4E5361"/></svg>