<svg width="22" height="22" fill="none" xmlns="http://www.w3.org/2000/svg"><g clip-path="url(#a)" fill="#4E5361" stroke="#4E5361" stroke-width=".2"><path d="M11 .9C5.43.9.9 5.43.9 11c0 5.57 4.53 10.1 10.1 10.1 5.57 0 10.1-4.53 10.1-10.1C21.1 5.43 16.57.9 11 .9Zm0 18.631c-4.704 0-8.531-3.827-8.531-8.531 0-4.704 3.827-8.531 8.53-8.531 4.705 0 8.532 3.827 8.532 8.53 0 4.705-3.827 8.532-8.531 8.532Z"/><path d="M16.16 10.767h-4.65v-5.09a.784.784 0 1 0-1.569 0v5.874c0 .433.351.784.784.784h5.435a.785.785 0 0 0 0-1.569Z"/></g><defs><clipPath id="a"><path fill="#fff" d="M0 0h22v22H0z"/></clipPath></defs></svg>