<svg width="22" height="22" fill="none" xmlns="http://www.w3.org/2000/svg"><g clip-path="url(#a)" fill="#4E5361" stroke="#4E5361" stroke-width=".2"><path d="M11.001 20.954A9.965 9.965 0 0 1 1.047 11a9.954 9.954 0 1 1 9.954 9.954Zm4.655-16.921a8.38 8.38 0 0 0-4.655-1.412A8.388 8.388 0 0 0 2.622 11a8.38 8.38 0 1 0 13.034-6.967Z"/><path d="M11.557 15.223a.787.787 0 0 1-1.345-.557v-4.583a.787.787 0 0 1 1.575 0v4.583c0 .21-.083.41-.23.557ZM11.001 8.35a1.017 1.017 0 1 1 0-2.033 1.017 1.017 0 0 1 0 2.033Z"/></g><defs><clipPath id="a"><path fill="#fff" transform="matrix(-1 0 0 1 22 0)" d="M0 0h22v22H0z"/></clipPath></defs></svg>