<svg width="24" height="24" fill="none" xmlns="http://www.w3.org/2000/svg"><path d="m18.91 9.72-6.486-6.487a1.72 1.72 0 0 0-2.642 2.179l-.01.045A12.002 12.002 0 0 1 6.48 11.61l-2.976 2.975a1.719 1.719 0 0 0 0 2.432l1.622 1.622a1.72 1.72 0 0 0 2.432 0l.406-.405 2.838 2.838a1.719 1.719 0 1 0 2.433-2.433l-1.217-1.216.406-.405a1.719 1.719 0 0 0 0-2.433l-.276-.276a12.003 12.003 0 0 1 4.539-1.938l.045-.01a1.722 1.722 0 0 0 2.179-.209c.67-.67.67-1.761 0-2.432ZM6.749 17.828a.573.573 0 0 1-.811 0l-1.622-1.621a.573.573 0 0 1 0-.811l2.838-2.838 2.433 2.432-2.838 2.838Zm5.676 1.622a.574.574 0 0 1-.811.81l-2.838-2.837.81-.81 2.839 2.837Zm-2.027-3.649c.172-.172.43-.436.837-.784l.379.379a.573.573 0 0 1 0 .81l-.406.406-.81-.81Zm.024-1.597L7.94 11.723a13.13 13.13 0 0 0 2.792-5.318l5.007 5.007a13.129 13.129 0 0 0-5.317 2.792ZM18.1 11.34a.573.573 0 0 1-.811 0l-6.487-6.486a.573.573 0 1 1 .81-.811L18.1 10.53a.574.574 0 0 1 0 .81Z" fill="#4E5361"/><path d="M7.558 14.586a.573.573 0 0 0-.81 0l-.812.81a.573.573 0 1 0 .811.811l.811-.81a.573.573 0 0 0 0-.811ZM15.057 2a.573.573 0 0 0-.574.573V3.72a.573.573 0 0 0 1.147 0V2.573A.573.573 0 0 0 15.057 2Zm4.587 4.587h-1.146a.573.573 0 0 0 0 1.146h1.146a.573.573 0 0 0 0-1.146Zm-.74-3.272a.573.573 0 0 0-.811 0L16.946 4.46a.573.573 0 0 0 .81.811l1.148-1.147a.573.573 0 0 0 0-.81Z" fill="#4E5361"/></svg>