<svg width="25" height="24" fill="none" xmlns="http://www.w3.org/2000/svg"><path d="M16.047 20.652v-2.071c3.282 0 5.967-2.797 5.967-6.215 0-3.418-2.685-6.215-5.967-6.215V4.08c4.409 0 7.957 3.729 7.957 8.286 0 4.558-3.581 8.287-7.957 8.287Zm-2.952.83c-.16.002-.319-.033-.463-.103L6.53 18.132V5.876l6.1-3.245a1.246 1.246 0 0 1 .995 0 1.095 1.095 0 0 1 .465.898v16.917c0 .38-.166.725-.465.898-.161.095-.345.143-.53.14ZM0 16.682V7.36c0-.587.43-1.036.994-1.036h3.581v11.394H.995C.43 17.718 0 17.27 0 16.682Zm20.025-4.316c0 2.279-1.79 4.143-3.978 4.143v-2.071c1.127 0 1.988-.933 1.988-2.072 0-1.14-.894-2.071-1.988-2.071V8.223c2.188 0 3.978 1.864 3.978 4.143Z" fill="#4E5361"/></svg>