<svg width="24" height="24" fill="none" xmlns="http://www.w3.org/2000/svg"><path d="M19.526 18.669v-.305c0-2.011-.427-3.596-1.28-4.754-.244-.366-.061-.853.305-.914.304-.062.61-.122.975-.122 2.986 0 4.022 2.742 4.022 4.632 0 .975-2.011 1.463-4.022 1.463Zm-7.618-8.473a3.538 3.538 0 0 1-3.534-3.535 3.537 3.537 0 0 1 3.534-3.535 3.537 3.537 0 0 1 3.535 3.535 3.537 3.537 0 0 1-3.535 3.535Zm7.557 1.28c-1.462 0-2.681-1.219-2.681-2.681 0-1.463 1.218-2.682 2.681-2.682s2.681 1.219 2.681 2.682c0 1.462-1.218 2.681-2.68 2.681Zm-15.174-.06a2.601 2.601 0 0 1-2.62-2.621 2.601 2.601 0 0 1 2.62-2.621 2.601 2.601 0 0 1 2.62 2.62 2.602 2.602 0 0 1-2.62 2.621Zm7.617.243c3.84 0 6.52 1.463 6.52 6.522 0 1.34-1.462 2.925-6.52 2.925s-6.52-1.402-6.52-2.925c0-5.12 2.62-6.522 6.52-6.522ZM.268 17.327c0-1.889.976-4.632 4.023-4.632.365 0 .67.061.975.122.427.122.548.61.304.914-.853 1.159-1.28 2.743-1.28 4.754v.305c-2.01 0-4.021-.487-4.021-1.462Z" fill="#4E5361"/></svg>