<svg width="24" height="24" fill="none" xmlns="http://www.w3.org/2000/svg"><path d="M11.5 4.7a6.8 6.8 0 1 0 0 13.6 6.8 6.8 0 0 0 0-13.6ZM3 11.5a8.5 8.5 0 1 1 17 0 8.5 8.5 0 1 1-17 0Z" fill="#4E5361"/><path d="M11.5 13.2a.85.85 0 0 1-.85-.85v-.85a.85.85 0 0 1 1.7 0v.85a.85.85 0 0 1-.85.85Zm-1.275 2.125a1.275 1.275 0 1 1 2.55 0 1.275 1.275 0 0 1-2.55 0Z" fill="#4E5361"/><path d="M11.832 7.94c-.814-.039-1.497.416-1.619 1.15a.85.85 0 0 1-1.676-.28c.302-1.815 1.957-2.636 3.375-2.568.726.034 1.473.295 2.048.832.589.55.94 1.339.94 2.301 0 1.097-.432 1.912-1.176 2.407-.682.455-1.52.568-2.224.568a.85.85 0 1 1 0-1.7c.57 0 1.008-.1 1.282-.282.212-.142.418-.391.418-.993 0-.525-.18-.853-.401-1.06-.236-.22-.578-.356-.967-.376Z" fill="#4E5361"/></svg>