<svg width="24" height="24" fill="none" xmlns="http://www.w3.org/2000/svg"><path d="M17.064 18.271a.476.476 0 0 0 .725.19 8.527 8.527 0 0 0 2.239-2.639 7.987 7.987 0 0 0 .289-7.052 8.398 8.398 0 0 0-1.953-2.736 9.181 9.181 0 0 0-4.665-2.321.52.52 0 0 1-.433-.506v-.284a.5.5 0 0 0-.773-.418L9.317 4.578a.5.5 0 0 0 0 .837l3.176 2.074a.5.5 0 0 0 .773-.418v-.448c0-.313.285-.55.586-.466a6.58 6.58 0 0 1 2.744 1.534 6.067 6.067 0 0 1 1.41 1.976 5.76 5.76 0 0 1-.082 4.843 6.089 6.089 0 0 1-1.342 1.812.527.527 0 0 0-.13.602l.612 1.347ZM3 12h.001a7.956 7.956 0 0 0 .683 3.23 8.398 8.398 0 0 0 1.952 2.736c1.39 1.306 3.196 2.144 5.137 2.393a.52.52 0 0 1 .46.51v.208a.5.5 0 0 0 .772.419l3.178-2.074a.5.5 0 0 0 0-.837l-3.178-2.075a.5.5 0 0 0-.773.419v.565a.47.47 0 0 1-.551.474 6.625 6.625 0 0 1-3.276-1.659 6.066 6.066 0 0 1-1.41-1.976 5.755 5.755 0 0 1 .082-4.844 6.084 6.084 0 0 1 1.34-1.811.527.527 0 0 0 .131-.602L6.936 5.73a.476.476 0 0 0-.725-.19 8.526 8.526 0 0 0-2.239 2.639A7.986 7.986 0 0 0 3 12Z" fill="#4E5361"/></svg>