<svg width="24" height="24" fill="none" xmlns="http://www.w3.org/2000/svg"><path d="M20.395 14.893a.589.589 0 0 0-.28-.356.62.62 0 0 0-.459-.059l-1.937.505-1.058-.594 1.158-.415a.581.581 0 0 0 .357-.752.609.609 0 0 0-.775-.347l-2.1.752-.902-.506v-1.336l.902-.506 2.1.752a.603.603 0 0 0 .775-.347.581.581 0 0 0-.357-.752l-1.158-.415 1.058-.593 1.937.504a.619.619 0 0 0 .458-.059.589.589 0 0 0 .281-.356l.584-2.115a.584.584 0 0 0-.427-.718l-2.178-.567a.62.62 0 0 0-.458.059.588.588 0 0 0-.281.355l-.52 1.882-1.058.593.21-1.182a.588.588 0 0 0-.493-.676.602.602 0 0 0-.697.478l-.379 2.142-.903.506-1.192-.668V9.09l1.722-1.39a.574.574 0 0 0 .078-.825.616.616 0 0 0-.85-.076l-.95.767V6.379l1.419-1.377a.578.578 0 0 0 0-.828l-1.595-1.55a.616.616 0 0 0-.854 0l-1.595 1.55a.574.574 0 0 0 0 .828l1.418 1.377v1.187l-.949-.767a.616.616 0 0 0-.85.076.574.574 0 0 0 .078.825l1.721 1.39v1.012l-1.191.668-.903-.506-.379-2.142a.602.602 0 0 0-.697-.478.588.588 0 0 0-.492.676l.209 1.182-1.059-.593-.519-1.882a.588.588 0 0 0-.28-.355.62.62 0 0 0-.459-.059l-2.179.567a.584.584 0 0 0-.426.718l.584 2.115c.04.15.142.278.28.356a.618.618 0 0 0 .459.059l1.937-.504 1.058.593-1.158.415a.581.581 0 0 0-.357.752.603.603 0 0 0 .775.347l2.1-.752.902.506v1.336l-.902.506-2.1-.752a.609.609 0 0 0-.775.347.581.581 0 0 0 .357.752l1.158.415-1.058.594-1.937-.505a.619.619 0 0 0-.458.059.589.589 0 0 0-.281.356l-.584 2.116a.584.584 0 0 0 .426.717l2.18.567a.619.619 0 0 0 .457-.058.589.589 0 0 0 .281-.356l.52-1.882 1.058-.593-.21 1.182a.588.588 0 0 0 .596.685.599.599 0 0 0 .594-.487l.379-2.142.903-.506 1.191.669v1.011l-1.72 1.39a.574.574 0 0 0-.079.825.616.616 0 0 0 .85.076l.95-.767v1.187l-1.419 1.377a.574.574 0 0 0 0 .829l1.595 1.549a.61.61 0 0 0 .427.171.61.61 0 0 0 .427-.171l1.595-1.55a.577.577 0 0 0 0-.828l-1.419-1.377V17.34l.95.767c.113.091.25.136.385.136a.61.61 0 0 0 .465-.212.574.574 0 0 0-.078-.825l-1.722-1.39v-1.012l1.192-.668.903.506.379 2.142a.599.599 0 0 0 .697.479.588.588 0 0 0 .492-.677l-.209-1.182 1.059.593.519 1.882c.041.15.142.278.28.355a.617.617 0 0 0 .459.059l2.179-.567a.584.584 0 0 0 .426-.717l-.584-2.116Z" fill="#4E5361"/></svg>