<svg width="28" height="28" xmlns="http://www.w3.org/2000/svg"><path d="M13.977 0C6.627 0 .597 5.67.027 12.875l7.502 3.103a3.955 3.955 0 0 1 2.233-.687c.072 0 .146.004.218.004l3.337-4.83v-.07a5.28 5.28 0 0 1 5.277-5.276 5.288 5.288 0 0 1 5.281 5.281 5.284 5.284 0 0 1-5.281 5.277h-.118l-4.758 3.395c0 .064.004.124.004.188a3.956 3.956 0 0 1-3.956 3.96 3.985 3.985 0 0 1-3.888-3.18L.51 17.814c1.664 5.88 7.055 10.186 13.467 10.186 7.73 0 13.996-6.266 13.996-14S21.707 0 13.978 0V0ZM8.796 21.246l-1.719-.711a2.987 2.987 0 0 0 1.536 1.458A2.979 2.979 0 0 0 12.5 20.39c.305-.738.305-1.54.004-2.274a2.94 2.94 0 0 0-1.61-1.613 2.957 2.957 0 0 0-2.187-.037l1.773.734a2.195 2.195 0 0 1 1.18 2.866 2.194 2.194 0 0 1-2.866 1.18ZM22.112 10.39a3.522 3.522 0 0 0-3.514-3.519 3.517 3.517 0 1 0 0 7.037 3.52 3.52 0 0 0 3.514-3.518Zm-6.147-.005a2.638 2.638 0 0 1 2.639-2.643 2.646 2.646 0 0 1 2.647 2.643 2.649 2.649 0 0 1-2.647 2.644 2.641 2.641 0 0 1-2.64-2.644Z" fill="#4E5361"/></svg>