<svg width="20" height="20" fill="none" xmlns="http://www.w3.org/2000/svg"><path d="M10.761 17.895a.84.84 0 0 1-.381-.087l-5.014-2.704V4.894l5.014-2.702a1.013 1.013 0 0 1 .817 0 .908.908 0 0 1 .382.748V17.03c0 .317-.136.604-.382.748a.826.826 0 0 1-.436.116ZM0 13.897V6.132c0-.49.354-.863.817-.863H3.76v9.49H.817c-.463 0-.817-.373-.817-.862ZM14.135 7.67a.638.638 0 1 1 .902-.902l4.511 4.51a.638.638 0 1 1-.902.902l-4.51-4.51Z" fill="#4E5361"/><path d="M18.646 6.767a.638.638 0 0 1 .902.902l-4.51 4.511a.638.638 0 1 1-.902-.902l4.51-4.511Z" fill="#4E5361"/></svg>