<svg width="24" height="25" fill="none" xmlns="http://www.w3.org/2000/svg"><path d="M20.69 6.606a3.271 3.271 0 0 0-2.912-2.91 54.195 54.195 0 0 0-11.554 0 3.272 3.272 0 0 0-2.916 2.91 54.469 54.469 0 0 0 0 11.56 3.278 3.278 0 0 0 2.912 2.912c3.84.412 7.714.412 11.554 0a3.279 3.279 0 0 0 2.916-2.912 54.46 54.46 0 0 0 0-11.56Zm-3.606 8.999c-.262.037-1.542 0-1.608 0a1.257 1.257 0 0 1-.89-.355c-.27-.26-.511-.547-.775-.818a2.062 2.062 0 0 0-.253-.23c-.21-.16-.419-.124-.518.124a4.842 4.842 0 0 0-.162.822c-.017.25-.177.409-.459.425-.175.01-.35.013-.522.01a3.987 3.987 0 0 1-1.81-.449 4.924 4.924 0 0 1-1.546-1.351c-.682-.872-1.227-1.829-1.714-2.816-.026-.05-.524-1.11-.537-1.161-.045-.167 0-.327.138-.383.088-.034 1.732 0 1.76 0a.578.578 0 0 1 .552.397 8.57 8.57 0 0 0 1.235 2.166c.072.088.157.164.25.228.135.092.262.06.317-.095.065-.214.104-.436.114-.66.01-.443 0-.735-.024-1.179-.016-.284-.117-.532-.536-.613-.129-.024-.14-.13-.057-.236.173-.22.409-.256.674-.268.394-.024.789-.008 1.184 0h.086c.171-.002.343.015.51.05a.473.473 0 0 1 .376.421c.02.112.029.226.026.34-.01.483-.034.968-.04 1.452-.004.191.014.383.053.571.056.259.233.322.409.136.228-.24.437-.497.625-.769a7.784 7.784 0 0 0 .818-1.59c.114-.288.204-.351.511-.351h1.744c.104-.002.208.011.307.04a.265.265 0 0 1 .183.343c-.086.383-.292.709-.511 1.023-.355.502-.73.991-1.092 1.487a1.894 1.894 0 0 0-.126.205c-.137.246-.127.384.072.589.317.326.655.63.96.966.225.244.428.507.606.786.224.348.086.68-.331.739l.001.004Z" fill="#4E5361"/></svg>