<svg width="24" height="24" fill="none" xmlns="http://www.w3.org/2000/svg"><path d="M17.767 12.308c-.308-.385-.22-.557 0-.9.003-.005 2.54-3.482 2.8-4.662h.002c.13-.43 0-.746-.628-.746h-2.077c-.529 0-.773.271-.903.574 0 0-1.058 2.513-2.554 4.142-.483.47-.707.621-.97.621-.13 0-.332-.15-.332-.58V6.746c0-.516-.148-.746-.586-.746H9.253c-.332 0-.53.24-.53.464 0 .49.749.601.827 1.976v2.984c0 .654-.12.774-.385.774-.706 0-2.42-2.523-3.436-5.41C5.524 6.227 5.324 6 4.79 6H2.713C2.12 6 2 6.27 2 6.575c0 .536.706 3.2 3.284 6.72C7.002 15.698 9.42 17 11.622 17c1.323 0 1.485-.29 1.485-.787 0-2.295-.12-2.512.543-2.512.307 0 .836.15 2.07 1.31C17.133 16.385 17.365 17 18.155 17h2.078c.592 0 .892-.29.72-.86-.396-1.2-3.065-3.667-3.185-3.832Z" fill="#4E5361"/></svg>